<?xml version="1.0" encoding="utf-8"?>
<!DOCTYPE svg PUBLIC "-//W3C//DTD SVG 20010904//EN" "http://www.w3.org/TR/2001/REC-SVG-20010904/DTD/svg10.dtd">
<svg version="1.0" xmlns="http://www.w3.org/2000/svg" width="10px" height="28px" viewBox="0 0 10 28" preserveAspectRatio="xMidYMid meet">
 <g fill="#252135">
  <path d="M1 25.1 c0 -0.5 0.6 -1.2 1.3 -1.4 0.9 -0.4 0.8 -0.8 -0.3 -1.7 -1.1 -0.9 -1.2 -1.3 -0.2 -1.7 1.7 -0.7 1.5 -3.3 -0.3 -3.3 -2.1 0 -1.9 -1.3 0.5 -3.5 2 -1.8 2 -1.7 2 1 0 1.6 0.9 3.6 2.2 4.7 1.9 1.6 2 2.1 0.8 2.9 -1.1 0.8 -1.2 1.2 -0.2 1.6 2.4 1 1.1 2.3 -2.3 2.3 -1.9 0 -3.5 -0.4 -3.5 -0.9z"/>
  <path d="M3 3 c0 -1.1 0.7 -2 1.5 -2 0.8 0 1.5 0.9 1.5 2 0 1.1 -0.7 2 -1.5 2 -0.8 0 -1.5 -0.9 -1.5 -2z"/>
 </g>
 <g fill="#524a70">
  <path d="M2 25 c-0.8 -0.5 -1 -1 -0.3 -1 1.8 0 1.4 -6.8 -0.5 -7.2 -1.2 -0.2 -1 -0.9 1.2 -3.3 2.9 -3.1 2.9 -3.1 5.7 1.8 0.7 1.3 0.6 1.7 -0.5 1.7 -0.9 0 -1.4 1.1 -1.4 3.5 0 2 0.5 3.5 1.2 3.5 0.6 0 0.4 0.5 -0.4 1 -0.8 0.5 -1.9 1 -2.5 1 -0.5 0 -1.7 -0.5 -2.5 -1z"/>
  <path d="M3.2 4.5 c0.4 -3.3 2.2 -3.3 2.6 0 0.2 1.8 -0.1 2.5 -1.3 2.5 -1.2 0 -1.5 -0.7 -1.3 -2.5z"/>
 </g>
 <g fill="#9d9da1">
  <path d="M3.2 21.8 c-0.1 -2.2 -0.7 -4.5 -1.4 -4.9 -1 -0.7 -1.1 -1.2 0 -2.9 0.6 -1.1 1.2 -4 1.2 -6.6 0 -6.2 2.3 -5.4 3 1.2 0.3 2.7 0.9 5.5 1.4 6.3 0.5 0.8 0.4 1.6 -0.3 2.1 -0.7 0.4 -1.2 2.6 -1.3 4.8 -0.1 5.7 -2.5 5.7 -2.6 0z"/>
 </g>
 <g fill="#c2c2c6">
  <path d="M4.1 19.7 c0 -1.5 -0.8 -3 -1.6 -3.3 -1.3 -0.5 -1.3 -0.9 -0.3 -2.1 0.7 -0.9 1.6 -3.6 2 -6.2 0.6 -3.8 0.6 -3.6 0.3 1.7 -0.3 3.7 -0.1 6.2 0.5 6.2 0.6 0 1 -0.5 1 -1.1 0 -0.5 0.5 -0.7 1.1 -0.4 0.7 0.5 0.5 1.1 -0.5 1.8 -0.8 0.7 -1.7 2.3 -1.9 3.7 -0.4 2.4 -0.4 2.4 -0.6 -0.3z"/>
 </g>
 <g fill="#f9f9f8">
 </g>
</svg>